<svg width="1080" height="1080" viewBox="0 0 1080 1080" xmlns="http://www.w3.org/2000/svg" style="display:block" preserveAspectRatio="xMidYMid meet"><svg x="148" y="205" width="775" height="639" xmlns="http://www.w3.org/2000/svg" style="display:block" preserveAspectRatio="none"><svg version="1.1" xmlns="http://www.w3.org/2000/svg" style="display: block;" width="775" height="639" viewBox="0.00 -0.80 2048.00 1688.61" preserveAspectRatio="none"><g id="svg-group-013d5d41-9c93-4ce0-97e8-b03178265e55">
<defs>
	<linearGradient id="Gradient1" gradientUnits="userSpaceOnUse" x1="1788.43" y1="1561.33" x2="1586.46" y2="1661.82">
		<stop class="stop0" offset="0" stop-opacity="1" stop-color="rgba(253, 245, 213, 1)"/>
		<stop class="stop1" offset="1" stop-opacity="1" stop-color="rgba(254, 234, 220, 1)"/>
	</linearGradient>
</defs>
<path transform="translate(0,0)" fill="rgba(251, 214, 196, 1)" d="M 1252.93 0 L 1260.67 0 C 1306.34 24.4568 1326.52 81.4759 1331.35 130.221 C 1332.68 143.603 1331.93 160.214 1331.9 173.835 C 1331.82 203.903 1334.31 235.807 1321.17 263.726 C 1319.4 267.492 1314.72 272.902 1314.79 276.652 C 1319.52 283.25 1343.47 289.07 1351.65 289.634 C 1360.79 281.186 1367.43 271.944 1376.07 263.203 C 1397.63 241.41 1419.11 218.088 1444.88 201.158 C 1461.48 190.123 1480.05 182.37 1499.56 178.318 C 1505.66 177.074 1515.77 176.484 1520.96 173.888 C 1537.33 165.698 1549.24 155.94 1565.96 147.236 C 1588.74 134.41 1614.07 129.737 1637.99 120.209 C 1663.42 110.078 1684.26 99.1004 1710.92 91.7689 C 1738.24 84.2545 1767.32 90.625 1792.64 85.7608 C 1823.9 77.8591 1853.29 66.6901 1886.22 68.9115 C 1891.97 69.2988 1904.78 73.8184 1908.32 73.5637 C 1931.66 71.8839 1952.51 70.1002 1970.11 90.9323 C 2000.67 127.097 2017.97 182.608 2018.21 229.872 C 2018.15 241.45 2014.83 268.089 2011.65 278.368 C 2002.36 308.455 1976.67 349.907 1953.44 371.773 C 1943.73 380.911 1929.13 389.917 1920.21 399.286 C 1908.39 411.697 1899.26 430.012 1889.01 443.224 C 1875.1 461.159 1856.25 478.2 1841.76 495.488 C 1823.97 516.723 1808.27 541.57 1788.68 561.274 C 1778.45 571.563 1765.68 579.935 1753.01 586.951 C 1719.35 605.602 1694.77 620.623 1673.56 654.216 C 1679.85 654.942 1685.14 654.818 1690.08 658.601 C 1692.85 662.837 1693.07 668.655 1693.43 673.631 C 1694.79 692.731 1702.42 711.543 1705.75 729.977 C 1711.28 760.679 1707.17 797.918 1695.56 826.574 C 1720.39 864.136 1735.97 911.414 1726.22 956.392 C 1717.29 997.579 1697.27 1025 1662.24 1047.87 C 1623.89 1072.25 1583.3 1088.81 1537.61 1091.99 C 1519.25 1093.27 1497.48 1090.75 1480.19 1092.6 C 1444.48 1096.43 1412.13 1095.98 1376.49 1096.49 C 1357.64 1111.2 1339.56 1120.7 1316.94 1128.37 C 1310.07 1139.28 1294.59 1154.73 1281.65 1157.75 C 1280.66 1157.97 1279.66 1158.18 1278.66 1158.37 C 1264.78 1163.39 1251.88 1176.93 1236.58 1184.19 C 1182.42 1209.88 1111.94 1226.46 1051.98 1226.86 C 1039.18 1226.95 1023.78 1224.71 1010.44 1224.68 C 988.749 1224.63 967.291 1224.77 945.645 1224.56 C 938.236 1224.49 925.054 1219.49 918.276 1221.15 C 911.24 1222.88 899.565 1229.19 892.115 1232 C 881.522 1236 868.019 1241.29 857.08 1243.63 C 845.403 1246.13 829.501 1247.44 817.505 1248.11 C 810.166 1248.51 796.884 1247.26 790.354 1248.23 C 778.142 1250.05 766.159 1252.52 753.733 1254.14 C 725.497 1257.82 688.059 1261.24 659.916 1259.6 C 639.787 1272.33 631.275 1269.96 608.933 1271.49 C 574.499 1273.84 541.944 1273.31 508.924 1261.74 C 503.059 1259.68 490.332 1251.46 485.578 1250.54 C 452.265 1244.11 424.339 1234.76 400.812 1208.97 C 366.494 1175.37 373.118 1149.43 372.854 1105.63 C 370.184 1108 367.115 1110.97 363.959 1112.5 C 348.215 1120.13 334.227 1131.12 319.025 1139.42 C 278.716 1161.56 233.121 1172.25 187.173 1170.34 C 167.611 1169.57 157.163 1165.19 144.038 1151.16 C 143.88 1137.12 143.777 1123.11 146.168 1109.23 C 148.269 1097.03 149.309 1093.13 158.929 1086.01 C 177.569 1085.52 200.934 1087.21 219.152 1085.31 C 231.978 1083.97 254.451 1058.85 260.916 1047.74 C 264.115 1042.24 265.724 1027.37 267.96 1021.95 C 274.979 1004.91 288.707 984.574 303.528 973.728 C 323.63 959.018 335.766 948.191 361.586 951.436 C 364.904 947.067 373.563 936.858 375.203 931.715 C 375.958 929.347 371.854 920.307 370.669 917.235 C 367.592 909.254 373.083 901.324 372.641 894.509 C 371.915 883.307 368.154 874.314 367.064 862.368 L 366.919 860.688 C 362.219 855.224 354.982 846.059 349.345 842.207 C 331.927 840.479 325.333 841.072 309.155 830.694 C 292.653 820.108 272.226 793.934 269.453 774.483 C 268.393 767.044 263.568 739.261 264.389 733.297 C 267.133 715.964 277.657 699.334 282.819 682.85 C 287.681 667.326 286.886 662.43 296.08 648.365 C 289.907 617.898 322.809 575.025 349.905 564.659 C 369.545 557.146 418.228 558.859 437.176 567.202 C 439.55 570.613 443.686 579.005 447.305 580.584 C 459.139 585.748 476.623 574.306 487.703 571.458 C 494.153 570.117 502.076 570.382 508.357 568.598 C 552.114 556.17 593.56 535.856 626.722 504.369 C 632.895 498.507 646.732 498.322 652.631 487.532 C 647.953 478.032 631.904 462.365 627.825 450.703 C 621.79 433.448 614.933 410.658 624.699 393.444 C 631.018 382.306 637.622 365.122 646.064 356.166 C 650.491 351.469 662.358 343.597 666.356 338.749 C 672.753 330.992 673.401 322.577 686.703 318.99 C 707.855 313.285 735.807 319.167 757.123 323.112 C 758.387 323.346 765.04 328.868 768.113 330.436 C 771.123 329.206 769.867 330.132 771.894 327.403 L 770.343 323.628 C 772.066 314 789.607 309.534 795.673 304.372 C 828.053 276.811 862.645 267.722 903.524 259.659 C 909.975 258.387 915.998 255.005 924.899 253.346 C 937.356 251.024 955.441 252.255 968.197 249.84 C 974.446 243.969 980.921 215.651 987.503 204.281 C 996.79 188.24 1004.45 173.595 1019.15 161.556 C 1036.39 147.427 1053.63 139.055 1071.74 124.713 C 1089.86 110.362 1102.98 94.0414 1118.98 80.4984 C 1137.72 64.6413 1165.56 49.3475 1186.12 35.0801 C 1196.22 28.0647 1205.54 19.3674 1215.74 12.71 C 1222.17 8.54207 1229.27 5.50407 1236.73 3.72717 C 1243.67 2.09414 1247.86 3.85096 1252.93 0 z M 414.619 651.086 C 433.281 651.238 450.338 650.04 468.432 654.992 C 486.571 656.182 504.742 672.332 515.489 685.783 C 537.607 713.467 569.395 746.398 565.247 784.575 C 563.455 801.071 560.008 814.057 560.096 830.803 C 557.253 835.778 546.754 853.194 545.658 857.189 C 556.865 867.715 644.988 872.074 662.478 877.097 C 670.13 879.295 680.173 886.577 687.012 888.003 C 713.121 893.445 725.264 888.317 744.509 909.336 C 752.804 918.395 792.358 929.205 805.553 932.658 C 823.808 938.213 833.474 931.507 847.771 933.732 C 873.881 937.794 896.603 942.935 923.679 940.109 C 931.728 941.272 968.479 942.801 973.88 945.955 C 990.901 955.895 1011.6 971.234 1026.89 983.412 C 1036.99 991.46 1043.64 1045.45 1036.12 1057.29 C 1014.03 1092.11 992.122 1125 951.95 1140.62 C 946.725 1142.66 941.534 1146.23 935.76 1147.94 L 934.748 1152.09 C 970.149 1151.36 1004.18 1152.23 1039.39 1155.97 C 1047.52 1156.84 1049.04 1156.35 1057.1 1159.17 C 1060.82 1157.99 1065.32 1155.23 1069.04 1154.54 C 1095.33 1150.5 1122.62 1141.92 1148.46 1137.36 C 1178.51 1132.05 1199.54 1125.35 1226.04 1109.68 C 1232.66 1105.76 1242.34 1102.03 1249.77 1099.28 C 1257.55 1085.87 1262.14 1068.61 1266.74 1053.6 C 1271.3 1038.71 1281.73 1016.97 1282.61 1001.95 C 1284.51 969.4 1285.69 934.656 1274.07 903.71 C 1268.04 888.199 1260.82 873.712 1255.36 857.98 C 1252.41 849.495 1251.6 830.588 1245.82 825.022 C 1234.65 814.253 1217.5 806.23 1204.76 796.429 C 1193.06 788.964 1181.8 771.441 1170.11 765.213 C 1159.25 759.422 1142.16 754.702 1130.76 748.228 C 1124.91 744.908 1114.08 743.133 1107.87 739.843 C 1092.13 731.503 1086.03 721.046 1067.18 719.682 C 1063.59 714.803 1060.92 707.963 1057 706.342 C 1053.57 707.822 1051.15 713.757 1048.7 716.824 C 1027.46 743.473 992.65 751.032 960.344 752.676 C 937.057 753.86 926.467 751.854 906.229 739.404 C 897.421 733.986 887.661 729.806 879.457 723.124 C 863.396 710.057 831.598 687.097 830.204 665.226 C 828.184 633.515 823.35 619.488 843.242 592.799 C 837.597 591.091 822.677 590.054 820.497 587.605 C 813.426 579.66 818.861 542.967 817.095 532.486 C 815.835 525.004 799.234 530.508 794.634 527.347 C 792.62 525.963 791.778 525.078 791.246 522.445 C 788.02 506.044 790.589 477.755 797.198 462.567 C 801.338 453.052 817.521 425.359 824.389 418.325 C 845.214 396.995 879.804 383.784 907.045 372.568 C 917.408 368.301 928.075 361.689 939 358.662 C 954.266 356.151 975.412 361.44 991.06 363.483 C 999.706 364.612 1016.23 365.104 1023.9 367.117 C 1033.06 369.517 1047.16 379.276 1057.19 383.059 C 1078.41 391.061 1089.48 386.791 1109.65 401.059 C 1133.59 417.999 1156.29 446.51 1174.91 469.388 C 1179.03 474.443 1184.69 490.193 1186.03 496.635 C 1188.6 508.903 1187.71 519.608 1187.09 531.512 C 1185.68 558.541 1184.42 568.813 1166.63 590.404 C 1160.57 597.761 1152.89 603.312 1147.44 609.872 C 1144.87 612.969 1138.96 626.664 1135.1 632.191 C 1129.17 640.703 1119.19 650.212 1108.66 652.093 C 1106.11 654.517 1105.05 654.704 1104.21 657.563 C 1110.91 666.243 1163.08 690.742 1175.14 697.514 C 1214.1 705.547 1242.48 736.329 1272.85 759.251 C 1287.25 770.115 1301.96 780.294 1316.33 791.27 C 1329.14 785.447 1331.99 783.956 1346.04 783.278 C 1362.81 767.042 1381.18 750.168 1399.32 735.571 C 1425.94 714.146 1458.03 698.759 1488.02 682.754 C 1484.84 670.942 1486.35 669.118 1485.42 659.291 C 1483 633.768 1496.65 625.927 1505.83 604.539 C 1508.26 598.875 1510.23 586.997 1512.49 580.519 C 1513.6 576.476 1518.59 570.307 1519.49 566.502 C 1525.35 541.551 1533.79 511.327 1523.34 486.637 C 1519.15 476.728 1512.38 470.876 1511.59 459.777 C 1508.39 456.822 1503.66 451.613 1499.35 452.828 C 1507.15 476.446 1495.21 491.702 1485.29 513.896 C 1473.3 537.256 1452.61 573.659 1424.57 580.447 C 1395.39 587.511 1354.17 588.38 1327.09 574.167 C 1310.32 565.364 1311.52 561.475 1301.43 547.891 C 1289.34 532.573 1275.27 517.821 1268.64 499.153 C 1263.16 483.736 1266.4 470.357 1265.92 455.04 C 1264.87 420.865 1268.07 388.962 1288.32 359.934 C 1288.43 357.356 1288.97 352.935 1287.97 350.783 C 1263.22 343.608 1247.07 342.189 1221.37 331.736 C 1207.62 326.138 1195.55 318.488 1184.27 313.826 C 1119.68 333.383 1054.73 320.396 988.743 326.847 C 973.86 328.302 960.447 328.389 945.914 324.346 C 938.879 322.389 928.373 319.169 920.889 320.338 C 895.228 328.426 868.37 337.511 844.326 349.517 C 830.964 357.365 813.621 371.594 799.411 380.478 C 796.371 388.14 791.496 406.251 788.273 411.557 C 774.948 433.498 759.76 456.198 743.629 476.247 C 735.751 486.039 725.511 507.056 717.621 515.827 C 690.564 545.906 651.242 570.864 617.753 593.655 C 614.831 595.644 582.546 611.447 578.25 612.972 C 562.369 618.611 532.658 628.633 515.584 630.414 C 504.062 631.615 493.654 638.599 482.401 641.463 C 473.877 643.632 465.841 644.362 457.539 646.111 C 452.177 641.218 440.444 628.594 432.956 629.328 C 428.636 629.751 426.089 634.256 423.73 637.766 C 420.58 642.225 417.565 646.482 414.619 651.086 z M 749.616 956.967 C 746.881 950.64 726.703 943.004 724.124 938.974 C 710.62 917.873 704.564 925.338 683.854 922.309 C 673.422 920.783 660.326 912.427 650.146 909.087 C 641.499 906.251 629.12 907.758 620.038 906.537 C 592.744 903.214 566.505 900.045 540.361 891.055 C 512.445 881.454 480.454 882.442 452.544 891.313 C 444.993 893.713 436.97 895.889 429.599 898.794 C 427.412 899.659 427.466 901.913 426.804 904.513 C 459.764 896.978 468.709 897.689 499.976 908.917 C 511.908 913.147 523.764 917.591 535.537 922.247 C 540 924.017 556.843 931.029 560.972 931.865 C 571.624 934.023 583.86 933.149 595.527 935.902 L 665.579 952.637 C 670.433 953.77 681.008 958.477 683.252 958.655 C 704.581 960.342 728.266 955.617 749.616 956.967 z M 316.618 687.579 C 312.506 695.045 297.398 734.536 297.662 741.919 C 298.338 760.872 308.273 791.198 325.747 801.361 C 329.004 798.864 328.011 796.399 328.817 792.262 C 331.327 779.377 321.204 766.705 319.104 754.989 C 315.095 732.619 325.341 711.659 333.267 691.352 C 326.016 690.77 323.628 689.878 316.618 687.579 z M 1351.95 847.072 C 1348.43 849.78 1332.88 859.226 1333.89 863.561 C 1336.69 875.543 1340.78 888.623 1344.46 900.424 C 1345.54 903.902 1361.38 897.078 1364.66 896.37 C 1386.37 891.984 1407.41 887.753 1428.54 881.029 C 1449.72 874.287 1471.54 863.65 1492.68 857.313 C 1520.44 848.989 1551.36 842.923 1577.89 830.838 C 1597.08 822.1 1621.6 806.92 1638.54 794.239 C 1638.61 789.101 1638.5 781.531 1638.92 776.606 C 1638.2 772.463 1639.65 758.001 1639.64 752.654 C 1639.62 735.12 1632.64 721.692 1627.75 705.262 C 1626.27 700.305 1627.97 694.283 1624.58 690.964 C 1618.04 689.516 1609.67 697.444 1603.55 699.963 C 1559.96 717.9 1522.95 746.414 1480.87 767.61 C 1473.38 773.821 1464.3 779.508 1455.96 786.342 C 1426.5 810.487 1392.21 845.63 1351.95 847.072 z M 682.083 449.058 C 698.686 432.101 724.878 387.791 731.418 364.272 C 733.699 356.069 703.811 350.909 698.234 351.017 C 690.131 363.23 682.751 366.958 673.55 375.635 C 668.435 380.459 655.613 406.004 652.073 413.589 C 656.234 430.614 660.368 446.384 675.393 457.257 L 682.083 449.058 z M 350.012 644.125 C 351.262 644.566 351.277 644.325 352.8 644.136 C 355.553 639.931 355.214 634.27 351.293 630.875 C 348.099 630.538 346.653 631.793 343.809 633.382 C 346.725 634.917 348.666 635.455 349.965 638.406 C 350.014 640.372 350.086 642.153 350.012 644.125 z M 839.515 464.83 C 865.566 434.178 893.138 430.466 931.783 427.392 C 953.691 425.65 995.76 437.412 1019.45 441.014 C 1039.67 444.088 1075.95 467.458 1092.89 479.187 C 1104.3 489.097 1133.67 525.925 1139.49 540.934 C 1141.46 545.989 1143.45 556.687 1148.09 557.92 C 1155.69 552.659 1152.71 521.783 1154.05 512.522 C 1153.14 505.953 1151.23 492.689 1146.63 488.045 C 1129.05 470.311 1113.8 449.626 1095.43 432.848 C 1091.38 429.142 1081.83 424.511 1076.84 421.627 C 1057.5 417.242 1042.96 416.258 1025.25 405.378 C 1020.51 402.46 1017.03 401.569 1012.31 397.525 C 1004.59 397.596 990.256 398.077 982.94 397.206 C 972.139 395.92 958.478 392.563 947.389 390.48 C 939.154 393.899 934.109 397.743 926.298 401.548 C 917.505 405.831 907.557 408.725 898.608 412.798 C 884.637 419.155 869.51 427.858 855.217 433.21 C 847.878 443.179 842.838 450.424 837.231 461.771 L 839.515 464.83 z M 891.582 567.472 C 885.355 590.108 882.734 608.633 862.729 622.504 C 860.785 633.979 861.392 647.594 862.151 659.26 C 862.403 663.134 864.056 665.234 867.261 667.365 C 873.914 673.156 878.715 678.297 884.978 684.235 C 890.449 689.421 899.294 695.262 905.586 699.702 C 909.851 705.467 930.587 715.912 938.391 720.629 C 969.173 719.788 1004.75 721.429 1024.08 693.037 C 1029.97 684.527 1035.07 676.546 1039.19 666.874 C 1044.22 655.068 1043.09 625.215 1035.96 614.932 C 1032.14 609.41 1018.54 599.435 1013.32 592.966 C 1004.4 581.913 999.433 568.927 987.641 561.151 C 966.65 547.062 959.7 544.014 934.098 544.879 C 926.558 545.134 919.919 544.446 911.914 545.877 C 905.81 546.331 904.671 546.605 898.89 548.487 C 890.78 551.3 885.266 558.477 880.008 564.981 L 891.582 567.472 z M 847.729 967.484 L 845.123 974.303 C 864.697 981.748 869.072 977.09 884.229 979.88 C 905.641 985.311 936.689 994.196 953.205 1008.6 C 969.388 1022.72 978.842 1039.97 959.372 1055.93 C 936.033 1075.07 900.186 1081.9 870.693 1085.68 C 858.158 1087.29 842.788 1085.68 830.013 1087.45 C 791.044 1095.81 754.102 1103.6 713.991 1102.15 C 702.564 1102.6 689.671 1106.4 678.446 1106.7 C 641.878 1107.68 605.211 1105.7 568.624 1105.94 C 546.591 1106.09 530.994 1088.14 507.069 1086.91 L 505.938 1088 C 505.897 1090.64 506.33 1099.99 509.342 1101.21 C 517.614 1104.54 527.283 1105.5 536.106 1107.68 C 546.877 1110.26 557.443 1113.63 567.717 1117.76 C 579.948 1122.79 584.111 1126.03 594.379 1133.93 C 624.868 1129.04 654.471 1131.85 684.536 1132.17 C 703.11 1132.37 724.312 1130.96 743.596 1130.97 C 788.839 1131.01 835.866 1132.92 880.435 1125.87 C 912.337 1120.82 960.849 1104.52 980.488 1078.55 C 988.247 1068.28 997.263 1052.61 1006.2 1040.52 C 1005.29 1034.84 1002.48 1008.17 1000.8 1006.71 C 989.477 996.891 970.411 990.142 961.195 976.551 C 949.815 975.224 932.801 973.308 921.516 973.622 C 894.231 974.382 874.61 973.225 847.729 967.484 z M 932.996 461.442 C 903.965 463.881 884.075 463.839 864.278 488.521 C 856.872 497.754 845.605 528.309 855.115 536.967 C 855.988 537.082 856.862 537.198 857.735 537.314 C 866.488 531.572 877.839 521.271 887.493 517.701 C 897.605 514.592 911.4 514.223 921.793 514.239 C 940.888 514.268 965.606 511.147 982.785 520.945 C 994.733 527.76 1015.16 539.24 1022.76 550.625 C 1032.42 565.077 1040.75 573.738 1053.22 585.576 C 1063.46 596.369 1069.54 603.666 1072.63 618.75 C 1073.19 621.48 1074.79 631.112 1079.01 629.404 C 1089.35 625.211 1102.7 618.493 1109.84 609.726 C 1115.21 603.482 1111.67 563.975 1110.67 560.045 C 1103.31 540.11 1073.43 504.906 1055.73 494.818 C 1049.12 491.051 1015.47 474.339 1012.24 473.91 C 997.945 472.007 943.67 459.502 932.996 461.442 z M 709.237 1001.87 C 710.62 1008.76 711.065 1010.2 709.483 1017.24 C 717.582 1015.65 714.521 1003.18 711.643 998.069 L 710.172 998.347 L 709.237 1001.87 z M 1369.78 1026.82 C 1407.88 1016.94 1457.64 1017.58 1497.05 1020.99 C 1533.56 1024.14 1532.72 1026.98 1567.68 1016.75 C 1618.51 1001.89 1677.03 977.633 1656.72 912.474 C 1653.85 903.252 1651.15 884.911 1642.5 878.28 L 1641.14 877.925 C 1613.37 889.39 1586.66 901.111 1558.08 910.987 C 1540.82 916.953 1520.6 918.796 1504.32 924.581 C 1486.34 930.966 1468.04 944.1 1447.97 948.281 C 1435.1 950.962 1423.48 952.691 1410.5 954.3 C 1396.3 957.398 1380.48 964.057 1365.85 966.883 C 1362.18 967.591 1354.02 969.73 1352.97 973.497 C 1349.53 985.893 1352.3 1001.95 1350.49 1015.25 C 1349.53 1022.27 1346.57 1025.56 1346.98 1030.17 C 1351.67 1035.64 1363.5 1028.61 1369.78 1026.82 z M 459.747 981.983 C 460.36 977.615 445.299 943.989 442.326 938.824 C 438.289 935.756 435.983 936.406 430.778 937.093 L 429.64 937.251 C 427.799 944.98 439.626 970.452 443.695 978.286 C 446.049 982.819 454.999 981.955 459.747 981.983 z M 1164.86 251.618 C 1173.65 247.609 1184.5 248.204 1194.24 247.91 C 1189.45 242.359 1171.92 244.257 1165.72 247.343 L 1164.37 249.005 L 1164.86 251.618 z M 632.395 984.211 C 636.303 990.832 657.546 1006.12 665.486 1005.73 C 662.965 1001.99 644.818 985.572 639.58 984.076 C 638.455 983.755 633.848 984.089 632.395 984.211 z M 568.547 1003.51 C 555.367 990.202 547.309 984.66 546.61 965.276 C 540.713 961.842 535.049 957.767 528.204 957.981 C 519.981 965.418 559.201 1003.53 566.887 1008.75 C 567.5 1008.38 568.429 1007.48 569.007 1006.96 L 568.547 1003.51 z M 440.462 1119.2 C 439.424 1126.81 438.212 1139.76 436.815 1146.64 C 453.621 1181.26 484.85 1183.96 518.769 1192.44 C 534.74 1196.43 552.511 1204.79 569.102 1207.36 C 583.329 1208.36 606.238 1207.77 621.072 1207.71 C 647.258 1185.86 751.48 1176.78 784.451 1180 C 790.985 1180.64 797.449 1182.49 804.043 1182.33 C 818.035 1182 844.247 1174.2 859.183 1171.06 C 865.548 1169.72 872.029 1169.55 878.264 1168.28 C 877.547 1164.88 878.182 1165.63 876.13 1163.3 C 871.604 1161.9 864.375 1162.67 858.831 1162.52 C 855.631 1164.54 853.812 1164.8 850.061 1164.92 C 789.777 1166.71 730.435 1165.86 670.131 1165.03 C 641.587 1164.18 612.919 1168.24 584.493 1165.06 C 576.597 1164.2 566.063 1152.57 559.488 1150.84 C 532.815 1143.84 505.536 1137.93 479.103 1130.03 C 461.814 1124.87 460.809 1108 440.462 1119.2 z"/>
<path transform="translate(0,0)" fill="rgba(252, 193, 192, 1)" d="M 1278.66 1158.37 C 1284.59 1149.07 1282.69 1147.87 1292.62 1148.26 C 1300.49 1148.57 1307.1 1128.47 1316.94 1128.37 C 1310.07 1139.28 1294.59 1154.73 1281.65 1157.75 C 1280.66 1157.97 1279.66 1158.18 1278.66 1158.37 z"/>
<path transform="translate(0,0)" fill="rgba(169, 47, 101, 1)" d="M 1357.68 514.884 C 1331.96 483.139 1328.52 473.57 1333.73 432.356 C 1339.53 386.546 1388 354.856 1417.05 324.544 C 1447.44 292.834 1473.29 266.63 1511.41 244.113 C 1520.58 238.696 1537.43 240.222 1547.33 234.461 C 1584.16 218.466 1620.61 196.284 1658.32 182.918 C 1685.64 173.235 1712.51 163.65 1740.09 155.272 C 1761.05 149.932 1785.18 155.067 1807.4 150.394 C 1818.21 148.08 1828.97 145.536 1839.67 142.763 C 1874.2 133.509 1884.27 132.015 1920.53 137.722 C 1922.1 137.97 1923.75 138.589 1924.63 140.088 C 1929.81 152.227 1945.87 183.929 1948.3 194.255 C 1949.71 200.257 1949.43 256.537 1948.43 258.885 C 1940.45 277.61 1919.96 317.759 1902.88 328.894 C 1869.5 350.663 1853.42 375.922 1830.07 407.174 C 1815.49 425.934 1792.84 443.669 1778.08 462.627 C 1764.99 475.169 1746.57 516.399 1732.34 523.718 C 1705.57 537.481 1688.56 542.512 1663.34 562.333 C 1645.02 576.729 1637.72 597.309 1623.48 609.049 C 1610 620.169 1578.59 631.032 1563.05 641.243 C 1535.75 654.332 1513.8 667.71 1488.02 682.754 C 1484.84 670.942 1486.35 669.118 1485.42 659.291 C 1483 633.768 1496.65 625.927 1505.83 604.539 C 1508.26 598.875 1510.23 586.997 1512.49 580.519 C 1513.6 576.476 1518.59 570.307 1519.49 566.502 C 1525.35 541.551 1533.79 511.327 1523.34 486.637 C 1519.15 476.728 1512.38 470.876 1511.59 459.777 C 1508.39 456.822 1503.66 451.613 1499.35 452.828 C 1495.47 442.547 1484.69 418.483 1475.78 412.49 C 1462.83 411.496 1431.64 427.745 1419.91 435.142 C 1412.43 439.858 1427.96 464.808 1431.28 470.791 L 1430.68 471.897 C 1417.08 497.23 1423.36 502.228 1399.35 522.719 C 1386.31 516.339 1372.03 516.665 1357.68 514.884 z"/>
<path transform="translate(0,0)" fill="rgba(251, 214, 196, 1)" d="M 911.914 545.877 C 919.919 544.446 926.558 545.134 934.098 544.879 C 959.7 544.014 966.65 547.062 987.641 561.151 C 999.433 568.927 1004.4 581.913 1013.32 592.966 C 1018.54 599.435 1032.14 609.41 1035.96 614.932 C 1043.09 625.215 1044.22 655.068 1039.19 666.874 C 1035.07 676.546 1029.97 684.527 1024.08 693.037 C 1004.75 721.429 969.173 719.788 938.391 720.629 C 930.587 715.912 909.851 705.467 905.586 699.702 C 899.294 695.262 890.449 689.421 884.978 684.235 C 878.715 678.297 873.914 673.156 867.261 667.365 C 864.056 665.234 862.403 663.134 862.151 659.26 C 861.392 647.594 860.785 633.979 862.729 622.504 C 882.734 608.633 885.355 590.108 891.582 567.472 L 880.008 564.981 C 885.266 558.477 890.78 551.3 898.89 548.487 C 899.712 549.548 899.943 549.536 901.074 550.345 C 910.884 549.736 929.642 550.447 937.95 547.762 L 937.61 546.862 C 929.424 545.491 920.283 545.848 911.914 545.877 z M 1007.85 641.116 C 1008.88 642.898 1008.17 642.173 1010.39 642.927 L 1011.45 641.478 C 1012.41 635.742 1013.55 627.832 1010.77 622.445 L 1007.82 621.673 C 1007.97 627.99 1008.27 634.863 1007.85 641.116 z M 877.706 644.932 L 878.413 639.713 L 876.931 637.983 C 871.696 640.068 871.877 651.35 874.205 655.03 L 876.284 655.223 C 878.172 652.051 876.873 649.106 877.706 644.932 z M 970.335 699.779 C 965.449 700.148 960.647 699.995 955.75 699.928 L 952.369 700.969 L 951.949 702.513 C 956.007 704.899 965.953 705.424 969.77 702.526 L 970.335 699.779 z"/>
<path transform="translate(0,0)" fill="rgba(169, 47, 101, 1)" d="M 911.914 545.877 C 919.919 544.446 926.558 545.134 934.098 544.879 C 959.7 544.014 966.65 547.062 987.641 561.151 C 999.433 568.927 1004.4 581.913 1013.32 592.966 C 1018.54 599.435 1032.14 609.41 1035.96 614.932 C 1043.09 625.215 1044.22 655.068 1039.19 666.874 C 1035.07 676.546 1029.97 684.527 1024.08 693.037 C 1004.75 721.429 969.173 719.788 938.391 720.629 C 930.587 715.912 909.851 705.467 905.586 699.702 C 905.071 697.741 904.683 696.467 904.078 694.591 L 904.865 694.145 C 907.16 694.529 907.502 694.611 909.591 693.568 C 930.91 703.248 936.122 699.495 955.75 699.928 L 952.369 700.969 L 951.949 702.513 C 956.007 704.899 965.953 705.424 969.77 702.526 L 970.335 699.779 C 973.175 698.499 984.184 698.756 988.027 697.955 C 1003.8 694.664 1007.89 679.728 1008.02 665.679 C 1008.1 657.538 1009.39 649.069 1007.85 641.116 C 1008.88 642.898 1008.17 642.173 1010.39 642.927 L 1011.45 641.478 C 1012.41 635.742 1013.55 627.832 1010.77 622.445 L 1007.82 621.673 C 1007.41 620.213 1006.98 618.759 1006.52 617.312 C 998.879 592.641 950.81 567.616 925.018 573.405 C 914.826 575.692 891.439 606.886 886.36 616.397 C 883.145 621.997 880.842 635.582 878.413 639.713 L 876.931 637.983 C 871.696 640.068 871.877 651.35 874.205 655.03 L 876.284 655.223 C 878.172 652.051 876.873 649.106 877.706 644.932 C 878.173 654.109 877.692 658.108 880.878 666.803 C 876.441 665.199 871.551 665.401 867.261 667.365 C 864.056 665.234 862.403 663.134 862.151 659.26 C 861.392 647.594 860.785 633.979 862.729 622.504 C 882.734 608.633 885.355 590.108 891.582 567.472 L 880.008 564.981 C 885.266 558.477 890.78 551.3 898.89 548.487 C 899.712 549.548 899.943 549.536 901.074 550.345 C 910.884 549.736 929.642 550.447 937.95 547.762 L 937.61 546.862 C 929.424 545.491 920.283 545.848 911.914 545.877 z"/>
<path transform="translate(0,0)" fill="rgba(131, 55, 64, 1)" d="M 867.261 667.365 C 871.551 665.401 876.441 665.199 880.878 666.803 C 887.807 678.891 896.953 687.467 909.591 693.568 C 907.502 694.611 907.16 694.529 904.865 694.145 L 904.078 694.591 C 904.683 696.467 905.071 697.741 905.586 699.702 C 899.294 695.262 890.449 689.421 884.978 684.235 C 878.715 678.297 873.914 673.156 867.261 667.365 z"/>
<path transform="translate(0,0)" fill="rgba(169, 47, 101, 1)" d="M 939.288 604.668 C 946.932 604.994 969.122 618.079 975.507 623.016 C 977.406 634.827 976.453 654.763 976.206 667.404 C 968.58 668.271 953.59 668.219 945.168 668.564 C 926.543 670.278 918.763 662.611 907.448 649.739 C 914.5 629.778 923.717 619.075 939.288 604.668 z"/>
<path transform="translate(0,0)" fill="rgba(169, 47, 101, 1)" d="M 1045.79 252.216 C 1049.55 243.664 1064.68 212.343 1069.89 205.954 C 1082.96 195.783 1098.4 189.692 1112.43 180.039 C 1134.69 164.723 1147.01 143.418 1165.23 125.832 C 1177.96 113.541 1203.92 103.855 1219.02 92.9844 C 1225.88 88.0453 1233.77 82.0863 1240.53 77.498 C 1247.14 82.0723 1247.01 88.4154 1250.28 94.4713 C 1267.57 126.511 1262.29 163.522 1261.49 198.539 C 1261.2 211.119 1261.15 225.449 1259.81 238.786 C 1251.37 246.5 1250.17 249.267 1244.56 259.628 C 1228.92 254.729 1210.5 248.621 1194.24 247.91 C 1189.45 242.359 1171.92 244.257 1165.72 247.343 L 1164.37 249.005 L 1164.86 251.618 C 1163.31 252.842 1157.31 255.163 1155.14 256.082 C 1117.59 249.859 1081.84 255.604 1045.79 252.216 z"/>
<path transform="translate(0,0)" fill="rgba(169, 47, 101, 1)" d="M 403.527 686.215 C 413.006 685.477 462.529 684.341 469.214 689.463 C 480.353 697.997 495.782 720.574 505.511 731.368 C 529.211 757.661 535.09 773.564 529.231 808.611 C 528.541 815.356 525.986 827.58 520.089 831.083 C 494.534 846.262 419.55 843.772 391.831 840.745 C 384.438 833.397 375.916 819.99 367.886 810.939 L 368.902 811.394 C 386.306 819.113 404.398 819.954 422.29 813.117 C 436.799 807.297 455.885 795.758 460.326 779.571 C 463.779 766.983 472.102 752.388 470.979 740.116 C 469.782 727.033 431.964 699.603 421.821 714.411 C 419.551 717.837 413.029 731.377 414.006 735.575 C 417.673 741.712 428.233 743.719 436.722 748.958 C 432.519 757.281 433.335 761.343 430.46 769.389 C 428.492 774.892 418.743 780.584 413.13 782.775 C 389.222 792.104 362.52 770.254 354.32 748.826 C 350.833 739.646 354.484 726.649 358.698 717.864 C 367.407 699.706 385.491 692.239 403.527 686.215 z"/>
<path transform="translate(0,0)" fill="rgba(169, 47, 101, 1)" d="M 708.04 991.549 C 729.956 990.915 774.731 987.165 795.663 992.804 C 822.825 1000.12 846.427 1013.93 877.13 1012.05 C 893.594 1011.94 921.839 1028.73 936.272 1036.97 C 919.483 1036.67 913.638 1041.57 898.284 1044.31 C 852.187 1052.52 805.554 1059.2 759.341 1067.02 C 748.419 1069.74 729.695 1066.45 719.54 1068.73 C 703.236 1072.39 686.853 1070.42 671.586 1072.71 C 647.751 1076.29 629.654 1075.28 605.929 1074.79 L 604.95 1072.55 C 630.528 1060.06 630.781 1049.28 623.179 1024.11 C 647.147 1037.74 663.11 1047.41 691.37 1037.86 C 701.032 1034.59 705.855 1025.85 709.483 1017.24 C 717.582 1015.65 714.521 1003.18 711.643 998.069 L 710.172 998.347 L 709.237 1001.87 L 708.04 991.549 z"/>
<path transform="translate(0,0)" fill="rgba(169, 47, 101, 1)" d="M 397.741 958.672 C 398.779 961.944 399.847 965.205 400.946 968.457 C 408.084 989.38 417.1 1006.43 439.126 1013.95 C 445.9 1016.26 454.229 1016.84 460.426 1020.17 C 459.17 1022.8 458.491 1023.51 458.194 1026.31 C 448.281 1029.62 438.935 1034.82 428.878 1037.7 C 420.97 1039.96 412.424 1039.49 404.575 1041.88 C 382.147 1048.74 362.814 1069.42 346.253 1084.99 C 334.634 1095.92 264.623 1129.85 249.637 1133.48 C 238.628 1136.15 226.786 1135.53 215.53 1136.32 C 201.802 1137.28 188.238 1139.22 174.437 1138.81 L 178.317 1116.69 C 223.956 1120.17 252.275 1116.51 279.511 1075.44 C 290.721 1062.34 292.546 1054.1 296.916 1038.24 C 304.71 1009.96 334.124 981.621 364.542 981.131 C 379.809 980.885 389.692 968.982 397.741 958.672 z"/>
<path transform="translate(0,0)" fill="rgba(169, 47, 101, 1)" d="M 328.797 633.695 C 335.186 623.011 351.93 594.22 363.638 592.971 C 371.085 592.176 401.799 591.262 408.762 594.996 L 409.772 596.951 C 408.359 601.281 403.418 604.576 400.157 608.308 C 389.245 620.797 375.423 637.783 373.358 654.634 C 372.914 658.26 373.527 667.185 373.734 671.144 C 371.39 666.148 368.618 660.659 366.929 655.477 L 347.569 656.347 C 347.874 653.093 348.129 646.595 350.012 644.125 C 351.262 644.566 351.277 644.325 352.8 644.136 C 355.553 639.931 355.214 634.27 351.293 630.875 C 348.099 630.538 346.653 631.793 343.809 633.382 C 337.878 633.945 334.78 633.913 328.797 633.695 z"/>
<path transform="translate(0,0)" fill="rgba(169, 47, 101, 1)" d="M 460.426 1020.17 C 473.332 1033.05 484.656 1047.73 505.746 1049.26 C 521.036 1050.37 525.455 1033.45 527.22 1021.07 C 544.647 1036.48 560.992 1051.54 579.298 1065.93 L 578.117 1068.16 C 580.064 1072.93 579.004 1072.23 582.559 1075.03 C 558.864 1074.69 526.736 1052.76 501.031 1050.57 C 489.509 1049.59 479.184 1050.86 467.721 1051.01 C 466.165 1043 463.044 1032.92 458.194 1026.31 C 458.491 1023.51 459.17 1022.8 460.426 1020.17 z"/>
<path transform="translate(0,0)" fill="rgba(252, 193, 192, 1)" d="M 426.804 904.513 C 425.133 905.292 423.44 905.958 421.709 906.589 L 418.893 904.621 C 423.399 896.48 429.3 895.293 437.176 892.47 C 469.653 880.833 509.432 876.029 543.051 887.623 L 538.516 887.149 C 557.113 891.201 575.574 895.545 594.348 899.57 C 612.133 903.382 632.343 901.595 650.106 904.688 C 655.915 905.699 670.87 918.315 674.747 916.467 L 675.057 917.547 L 674.412 917.537 L 674.864 916.588 L 673.544 913.991 C 693.468 921.807 692.69 916.232 708.601 918.888 C 711.519 919.358 714.277 920.541 716.629 922.331 C 721.045 925.633 725.526 934.991 728.527 936.838 C 739.152 943.379 744.769 946.561 753.931 955.426 L 754.272 956.798 C 751.62 957.971 753.074 957.631 749.616 956.967 C 746.881 950.64 726.703 943.004 724.124 938.974 C 710.62 917.873 704.564 925.338 683.854 922.309 C 673.422 920.783 660.326 912.427 650.146 909.087 C 641.499 906.251 629.12 907.758 620.038 906.537 C 592.744 903.214 566.505 900.045 540.361 891.055 C 512.445 881.454 480.454 882.442 452.544 891.313 C 444.993 893.713 436.97 895.889 429.599 898.794 C 427.412 899.659 427.466 901.913 426.804 904.513 z"/>
<path transform="translate(0,0)" fill="rgba(252, 193, 192, 1)" d="M 1480.87 767.61 C 1482.17 765.185 1484.75 761.276 1487.33 760.136 C 1514.53 748.128 1538.98 731.105 1564.78 716.492 C 1568.76 714.242 1572.62 708.312 1577.05 706.381 C 1585.8 701.951 1595.27 699.753 1604.15 696.781 C 1605.91 696.192 1621.11 686.719 1622.92 685.333 L 1625.18 685.47 C 1630.83 695.778 1632.57 708.052 1635.74 719.42 C 1636.91 725.114 1642.6 735.33 1643.03 740.611 C 1643.8 750.062 1644.41 761.22 1642.23 770.411 C 1641.72 772.551 1640.53 772.735 1640.01 775.796 L 1638.92 776.606 C 1638.2 772.463 1639.65 758.001 1639.64 752.654 C 1639.62 735.12 1632.64 721.692 1627.75 705.262 C 1626.27 700.305 1627.97 694.283 1624.58 690.964 C 1618.04 689.516 1609.67 697.444 1603.55 699.963 C 1559.96 717.9 1522.95 746.414 1480.87 767.61 z"/>
<path transform="translate(0,0)" fill="rgba(252, 193, 192, 1)" d="M 1076.84 421.627 C 1087.51 420.897 1103.28 431.757 1109.34 439.965 C 1117.43 450.93 1124.62 459.056 1134.02 468.88 L 1133.78 471.127 L 1135.63 472.741 L 1137.1 470.263 C 1140.82 470.954 1144.04 472.617 1147.52 474.146 C 1150.41 480.399 1156.72 506.211 1154.05 512.522 C 1153.14 505.953 1151.23 492.689 1146.63 488.045 C 1129.05 470.311 1113.8 449.626 1095.43 432.848 C 1091.38 429.142 1081.83 424.511 1076.84 421.627 z"/>
<path transform="translate(0,0)" fill="rgba(252, 193, 192, 1)" d="M 1175.14 697.514 C 1165.21 697.963 1148.71 690.606 1138.86 687.272 C 1129.96 684.255 1120.51 667.733 1108.85 664.498 C 1105.72 663.63 1098.14 660.748 1096.69 657.525 C 1099.03 654.671 1104.96 652.366 1108.66 652.093 C 1106.11 654.517 1105.05 654.704 1104.21 657.563 C 1110.91 666.243 1163.08 690.742 1175.14 697.514 z"/>
<path transform="translate(0,0)" fill="rgba(252, 193, 192, 1)" d="M 468.432 654.992 C 455.067 656.439 438.41 653.413 424.873 655.816 C 419.889 656.701 415.312 657.627 410.244 656.825 C 407.598 650.104 418.614 641.249 423.73 637.766 C 420.58 642.225 417.565 646.482 414.619 651.086 C 433.281 651.238 450.338 650.04 468.432 654.992 z"/>
<path transform="translate(0,0)" fill="rgba(172, 109, 108, 1)" d="M 858.831 1162.52 C 861.085 1162.02 867.17 1161.62 869.528 1161.87 C 877.965 1162.76 885.823 1158.49 893.95 1156.87 C 907.809 1154.09 921.798 1149.34 935.76 1147.94 L 934.748 1152.09 C 918.324 1151.86 891.74 1158.09 878.264 1168.28 C 877.547 1164.88 878.182 1165.63 876.13 1163.3 C 871.604 1161.9 864.375 1162.67 858.831 1162.52 z"/>
<path transform="translate(0,0)" fill="rgba(131, 55, 64, 1)" d="M 568.547 1003.51 C 577.402 1010.71 582.26 1018.96 586.594 1029.57 C 583.663 1026.41 568.345 1011.13 566.887 1008.75 C 567.5 1008.38 568.429 1007.48 569.007 1006.96 L 568.547 1003.51 z"/>
<path transform="translate(0,0)" fill="rgba(131, 55, 64, 1)" d="M 820.155 967.085 C 829.646 966.96 838.242 966.736 847.729 967.484 L 845.123 974.303 C 842.354 972.92 824.566 968.319 820.155 967.085 z"/>
<path transform="translate(0,0)" fill="rgba(0, 0, 0, 1)" fill-opacity="0.00784314" d="M 1164.86 251.618 L 1164.37 249.005 L 1165.72 247.343 C 1171.92 244.257 1189.45 242.359 1194.24 247.91 C 1184.5 248.204 1173.65 247.609 1164.86 251.618 z"/>
<path transform="translate(0,0)" fill="rgba(235, 201, 182, 1)" d="M 1221.89 34.6683 C 1227.62 38.0131 1231.37 48.015 1231.8 54.4494 C 1226.59 51.7397 1220.64 40.7591 1221.89 34.6683 z"/>
<path transform="translate(0,0)" fill="rgba(131, 55, 64, 1)" d="M 390.325 642.692 C 398.274 645.092 403.923 648.701 403.511 657.534 C 402.271 657.628 401.811 657.37 400.533 657.075 C 396.611 653.497 393.191 647.316 390.325 642.692 z"/>
<path transform="translate(0,0)" fill="rgba(131, 55, 64, 1)" d="M 582.559 1075.03 C 579.004 1072.23 580.064 1072.93 578.117 1068.16 L 579.298 1065.93 C 587.02 1076.09 593.185 1073.48 604.95 1072.55 L 605.929 1074.79 C 598.801 1075.22 589.828 1075 582.559 1075.03 z"/>
<path transform="translate(0,0)" fill="rgba(0, 0, 0, 1)" fill-opacity="0.00784314" d="M 709.237 1001.87 L 710.172 998.347 L 711.643 998.069 C 714.521 1003.18 717.582 1015.65 709.483 1017.24 C 711.065 1010.2 710.62 1008.76 709.237 1001.87 z"/>
<path transform="translate(0,0)" fill="rgba(131, 55, 64, 1)" d="M 826.902 486.276 C 829.555 475.578 830.38 470.576 837.231 461.771 L 839.515 464.83 C 834.535 471.817 830.967 478.763 826.902 486.276 z"/>
<path transform="translate(0,0)" fill="rgba(235, 201, 182, 1)" d="M 1515.13 188.896 C 1518.3 188.834 1520.39 188.435 1523.13 189.951 C 1523.49 193.294 1523.01 192.689 1520.8 196.339 C 1517.02 196.911 1518.33 197.214 1515.05 195.864 C 1513.85 192.416 1514.36 193.045 1515.13 188.896 z"/>
<path transform="translate(0,0)" fill="rgba(235, 201, 182, 1)" d="M 1680.33 810.543 C 1685.62 812.719 1689.34 814.631 1689.46 820.335 C 1682.87 819.665 1680.96 816.626 1680.33 810.543 z"/>
<path transform="translate(0,0)" fill="rgba(235, 201, 182, 1)" d="M 1327.37 388.51 L 1328.85 390.128 C 1328.28 393.78 1325.51 397.02 1323.33 400.201 L 1322.21 398.445 C 1322.85 394.29 1324.95 392.022 1327.37 388.51 z"/>
<path transform="translate(0,0)" fill="rgba(252, 193, 192, 1)" d="M 857.872 593.575 C 860.665 592.433 862.986 592.927 865.264 594.63 C 862.352 595.278 861.356 595.638 858.306 595.469 L 857.872 593.575 z"/>
<path transform="translate(0,0)" fill="rgba(253, 243, 214, 1)" d="M 1211.82 1451.98 L 1312.37 1451.97 C 1329.42 1451.92 1355 1450.92 1370.99 1453.34 C 1394.17 1456.85 1418.93 1467.16 1435.7 1483.68 C 1452.07 1499.81 1457.35 1518.2 1461.69 1540 C 1463.69 1550.09 1466.51 1556.75 1465.96 1568.06 C 1464.42 1599.37 1457.16 1634.15 1433.49 1656.51 C 1420.91 1668.4 1407.31 1676.5 1390.77 1681.07 C 1381.16 1683.73 1382.27 1681.12 1373.79 1687 L 1212.05 1687 C 1211.19 1681.72 1210.4 1677.56 1210.28 1672.19 C 1218.5 1671.26 1233.52 1671.91 1239.11 1664.9 C 1244.61 1658 1237.76 1504.04 1242.29 1477.91 L 1237.06 1468.83 C 1217.41 1469.18 1211.5 1473.43 1211.82 1451.98 z M 1369.58 1652.32 C 1381.86 1639.44 1384.97 1636.33 1389.53 1618.09 C 1390.41 1614.54 1391.97 1612.53 1394.09 1609.62 C 1393.99 1606.6 1393.69 1597.88 1394.36 1595.07 C 1398.23 1578.7 1396.4 1565.2 1395.23 1549.1 C 1391.26 1494.3 1367 1468.46 1311.31 1470.1 C 1308.11 1470.99 1306 1471.12 1304.09 1473.73 C 1303.07 1480.51 1303.73 1493.6 1303.83 1501.17 L 1303.95 1544.29 L 1303.87 1619.51 C 1303.74 1634.72 1301.96 1648.99 1304.56 1664.05 C 1317.72 1675.5 1358.82 1665.57 1369.58 1652.32 z"/>
<path transform="translate(0,0)" fill="rgba(253, 243, 214, 1)" d="M 592.123 1664.25 L 592.099 1545.98 C 592.108 1535.33 593.079 1479.8 590.581 1472.35 C 580.526 1463.17 561.869 1474.27 561.854 1458.47 C 561.848 1452.06 569.267 1450.74 574.538 1451.05 C 623.931 1453.96 673.716 1448.85 722.896 1452.48 C 742.014 1454.87 759.068 1460.37 771.672 1475.43 C 782.109 1487.9 784.283 1504.29 784.637 1519.85 C 785.199 1544.54 757.175 1568.23 735.49 1573.18 C 738.299 1575.36 741.157 1577.59 743.881 1579.87 C 768.48 1600.5 778.336 1648.03 799.84 1669.9 C 809.764 1670.06 829.208 1671.49 817.992 1687 L 743.376 1687 L 742.303 1685.94 C 735.589 1679.46 731.757 1670.03 727.156 1661.42 C 715.715 1639.93 704.783 1617.42 691.828 1596.79 C 686.665 1588.57 668.953 1575.69 660.142 1584.64 C 657.772 1587.05 656.5 1586.9 654.25 1589.78 C 653.101 1595.71 653.537 1656.24 654.894 1662.02 C 657.083 1662.98 655.983 1662.79 658.273 1662.29 C 663.721 1681.44 689.916 1657.21 682.089 1687 L 568.153 1687 C 562.802 1683.28 563.318 1685.01 562.365 1679.08 C 561.929 1676.36 561.568 1676.19 562.815 1673.6 C 571.857 1665.77 580.933 1675.52 592.123 1664.25 z M 662.73 1563.09 C 677.257 1563.4 687.501 1562.54 700.604 1554.07 C 721.262 1542.01 726.427 1512.1 714.485 1491.93 C 702.915 1472.39 683.626 1469.4 662.499 1470.08 C 659.538 1471.83 655.22 1475.17 655.27 1478.82 C 655.444 1491.41 652.474 1543.99 657.636 1553.05 C 659.504 1556.31 661.204 1559.66 662.73 1563.09 z"/>
<path transform="translate(0,0)" fill="url(#Gradient1)" d="M 1591.68 1672.76 C 1597.83 1671.7 1607.86 1671.01 1611.36 1665.39 C 1617.7 1655.21 1621.02 1643.05 1625.56 1631.94 C 1649.53 1573.18 1674.07 1514.61 1698.2 1455.91 C 1700.73 1449.76 1733.16 1451.27 1739.44 1452.4 C 1753.45 1483.58 1766.08 1517.05 1779.24 1548.75 C 1783.35 1558.64 1789.44 1571.5 1793.02 1580.79 L 1813.64 1633.04 C 1818.07 1644.6 1821.69 1664.11 1834.05 1669.01 C 1844.95 1673.33 1853.26 1671.74 1848.41 1687 L 1741.14 1687 C 1740.17 1682.07 1739.12 1677.69 1741.33 1673.28 C 1743.99 1670.42 1746.52 1670.08 1750.32 1668.9 C 1751.85 1667.12 1756.74 1661.58 1756.49 1659.7 C 1755.46 1652.07 1746.99 1622.29 1737.92 1621.82 C 1714.48 1620.94 1677.83 1618.53 1656.05 1623.08 C 1653.5 1623.61 1646.23 1640.54 1643.91 1644.96 C 1622.56 1685.59 1664.04 1653.47 1658.78 1687 L 1593.78 1687 L 1591.68 1672.76 z M 1681.44 1552.99 C 1679.88 1559.52 1677.5 1565.02 1675.24 1571.27 C 1670.1 1585.51 1658.72 1599.51 1682.48 1599.94 C 1689.84 1597.83 1715.9 1598.46 1725.23 1598.36 C 1727.19 1585.24 1726.56 1584.86 1722.51 1572.06 C 1718.61 1562.01 1710.51 1544.35 1708.45 1535.15 C 1706.67 1532.35 1705.54 1529.72 1702.5 1528.64 C 1698.88 1528.86 1697.16 1529.36 1693.6 1530.21 C 1690.98 1535.38 1684.53 1548.96 1681.44 1552.99 z"/>
<path transform="translate(0,0)" fill="rgba(172, 109, 108, 1)" d="M 1722.51 1572.06 C 1726.69 1575.94 1736.42 1596 1731.72 1598.52 C 1722.63 1603.39 1692.58 1601.03 1682.48 1599.94 C 1689.84 1597.83 1715.9 1598.46 1725.23 1598.36 C 1727.19 1585.24 1726.56 1584.86 1722.51 1572.06 z"/>
<path transform="translate(0,0)" fill="rgba(172, 109, 108, 1)" d="M 1681.44 1552.99 C 1683.97 1539.81 1690.88 1525.5 1700.03 1515.59 C 1703.4 1521.08 1708.88 1528.76 1708.45 1535.15 C 1706.67 1532.35 1705.54 1529.72 1702.5 1528.64 C 1698.88 1528.86 1697.16 1529.36 1693.6 1530.21 C 1690.98 1535.38 1684.53 1548.96 1681.44 1552.99 z"/>
<path transform="translate(0,0)" fill="rgba(253, 243, 214, 1)" d="M 218.496 1687 C 211.839 1681.08 210.422 1674.28 220.46 1671.56 C 224.521 1669.87 242.638 1670.05 243.787 1665.46 C 246.273 1655.51 246.139 1643.93 246.053 1633.71 C 245.643 1584.89 246.164 1536.05 245.879 1487.23 C 245.863 1484.61 245.328 1475.02 243.772 1473.27 C 236.902 1465.53 215.402 1473.4 213.342 1461.19 C 214.58 1457.09 215.254 1456.42 217.909 1453.01 C 221.256 1452.09 225.901 1451.7 229.369 1451.77 C 273.16 1452.6 317.247 1451.03 360.943 1452.1 C 370.208 1452.33 414.68 1450.26 421.441 1451.81 C 431.223 1458.66 432.754 1506.34 416.214 1507.5 C 403.125 1508.42 407.165 1488.78 407.063 1481.05 C 405.422 1478.45 403.734 1475.62 401.928 1473.16 C 378.594 1470.05 345.468 1474.6 321.184 1472.71 C 297.073 1470.83 309.356 1505.06 306.367 1518.96 C 304.91 1526.88 306.246 1540.51 310.665 1548.71 C 324.997 1549.46 353.608 1551.96 365.747 1546.32 C 372.472 1538.32 357.679 1511.62 386.454 1520.03 C 388.62 1522.95 388.738 1528.16 388.5 1531.76 C 387.137 1552.39 389.334 1574.59 388.263 1595.02 C 383.888 1603.25 370.193 1603.36 368.047 1593.72 C 366.27 1585.73 370.41 1577.64 364.228 1571.2 C 357.694 1568.59 307.285 1566 306.923 1574.39 C 305.818 1600.02 306.391 1627.16 306.407 1653.01 C 306.633 1681.82 333.229 1664.22 342.016 1673.81 C 343.985 1677.99 342.039 1683.31 339.725 1687 L 218.496 1687 z"/>
<path transform="translate(0,0)" fill="rgba(253, 243, 214, 1)" d="M 975.437 1664.61 C 975.128 1619.38 975.066 1574.15 975.249 1528.92 C 975.27 1512.52 975.308 1496.23 976.027 1479.85 C 976.121 1477.71 974.757 1474.81 973.312 1473.29 C 966.277 1465.01 946.101 1473.5 943.945 1461.15 C 943.633 1459.36 944.417 1455.26 946.178 1454.27 C 953.34 1450.23 965.823 1452.03 973.861 1452.11 L 1013.56 1452.16 C 1024.36 1452.15 1034.98 1450.83 1045.86 1451.13 C 1053.87 1451.36 1072.9 1450.16 1067.84 1464.24 C 1056.13 1475.11 1036.67 1460.57 1036.84 1485.01 C 1037.09 1522.47 1035.18 1559.62 1036.97 1597.12 C 1037.55 1609.41 1035.73 1650.64 1037.84 1659.14 C 1042.37 1661.76 1041.98 1657.57 1043.16 1661.78 C 1044.62 1666.98 1042.38 1666 1046.12 1670.13 C 1057.23 1674.7 1066.96 1657.99 1066.17 1687 L 973.661 1687 L 947.291 1687 C 944.218 1682.87 943.707 1676.32 947.5 1672.59 C 951.218 1668.94 955.421 1669.97 960.109 1670.25 C 967.787 1670.17 969.171 1669.18 975.437 1664.61 z"/>
<path transform="translate(0,0)" fill="rgba(251, 214, 196, 1)" d="M 947.291 1687 C 944.218 1682.87 943.707 1676.32 947.5 1672.59 C 951.218 1668.94 955.421 1669.97 960.109 1670.25 C 965.286 1675.56 963.065 1671.85 969.635 1674.46 C 966.516 1676.5 965.914 1676.61 962.316 1677.8 C 962.981 1679.77 963.631 1681.73 964.266 1683.71 C 971.491 1685.46 967.727 1682.64 973.661 1687 L 947.291 1687 z"/>
<path transform="translate(0,0)" fill="rgba(253, 243, 214, 1)" d="M 23.9866 1544.44 C 42.7806 1543.81 50.6439 1546.8 60.8688 1563.2 C 60.8744 1570.98 60.9841 1578.99 60.7865 1586.75 C 54.1754 1596.38 51.4623 1597.95 41.9905 1604.87 C 33.6975 1605.08 18.9231 1605.9 12.3356 1600.34 C 6.49893 1595.4 3.12803 1580.15 0 1575.82 L 0 1572.26 C 11.1245 1555.52 2.1658 1556.32 23.9866 1544.44 z"/>
<path transform="translate(0,0)" fill="rgba(253, 243, 214, 1)" d="M 1993.55 1555.13 C 2015.38 1538.34 2031.04 1541.3 2048 1562.16 L 2048 1587.23 C 2044.65 1591.26 2040.67 1596.48 2036.42 1599.47 C 2023.93 1608.21 2002.02 1607.7 1993.82 1593.31 C 1985.87 1579.33 1990.02 1569.3 1993.55 1555.13 z"/>
</g></svg></svg></svg>